<svg width="96" height="96" viewBox="0 0 96 96" fill="none" xmlns="http://www.w3.org/2000/svg">
<path d="M8 48C8 70.092 25.908 88 48 88C70.092 88 88 70.092 88 48C88 25.908 70.092 8 48 8C25.908 8 8 25.908 8 48Z" stroke="#D71812" stroke-width="8" stroke-linecap="round" stroke-linejoin="round"/>
<path d="M56 57C56 58.656 57.344 60 59 60H64C65.0609 60 66.0783 59.5786 66.8284 58.8284C67.5786 58.0783 68 57.0609 68 56V52C68 50.9391 67.5786 49.9217 66.8284 49.1716C66.0783 48.4214 65.0609 48 64 48H60C58.9391 48 57.9217 47.5786 57.1716 46.8284C56.4214 46.0783 56 45.0609 56 44V40C56 38.9391 56.4214 37.9217 57.1716 37.1716C57.9217 36.4214 58.9391 36 60 36H65C65.7956 36 66.5587 36.3161 67.1213 36.8787C67.6839 37.4413 68 38.2044 68 39M28 36L36 60L44 36" stroke="#D71812" stroke-width="8" stroke-linecap="round" stroke-linejoin="round"/>
</svg>
